<?xml version="1.0" encoding="UTF-8"?>
<svg xmlns="http://www.w3.org/2000/svg" width="900" height="700" viewBox="0 0 900 700">
  <defs>
    <linearGradient id="bg" x1="0" x2="0" y1="0" y2="1">
      <stop offset="0%" stop-color="#eaf6ff"/>
      <stop offset="100%" stop-color="#f7fff5"/>
    </linearGradient>
  </defs>
  <rect width="100%" height="100%" fill="url(#bg)"/>

  <!-- Stylized Managua area: coast, lake Xolotl치n, some roads -->
  <g transform="translate(40,30)">
    <!-- Land mass -->
    <path d="M30 80 C 110 20, 240 10, 360 40 C 460 65, 560 60, 640 30 C 720 -2, 820 10, 840 40 L 840 430 C 700 470, 560 470, 430 440 C 300 410, 180 430, 80 480 C 40 500, 30 480, 30 360 Z" fill="#dff0d8" stroke="#a8d3a0" stroke-width="3"/>

    <!-- Lago Xolotl치n (Laguna) -->
    <ellipse cx="470" cy="150" rx="180" ry="120" fill="#d6f3ff" stroke="#92cfe6" stroke-width="3"/>

    <!-- Main roads (stylized) -->
    <path d="M120 60 L 200 100 L 260 140 L 340 170 L 420 180 L 500 170 L 580 160" stroke="#ffb86b" stroke-width="6" fill="none" stroke-linecap="round"/>

    <!-- Markers for the places (red dots) -->
    <circle cx="460" cy="140" r="6" fill="#d9534f"/>
    <circle cx="430" cy="180" r="6" fill="#d9534f"/>
    <circle cx="510" cy="190" r="6" fill="#d9534f"/>
    <circle cx="490" cy="250" r="6" fill="#d9534f"/>
    <circle cx="380" cy="260" r="6" fill="#d9534f"/>

    <!-- Labels -->
    <text x="460" y="125" font-family="Segoe UI, Arial" font-size="13" fill="#073642" font-weight="700">Managua</text>
    <text x="465" y="155" font-family="Segoe UI, Arial" font-size="11" fill="#073642">Catedral</text>
    <text x="410" y="185" font-family="Segoe UI, Arial" font-size="11" fill="#073642">Ruinas</text>
    <text x="510" y="205" font-family="Segoe UI, Arial" font-size="11" fill="#073642">Paseo Xolotl치n</text>
    <text x="490" y="265" font-family="Segoe UI, Arial" font-size="11" fill="#073642">Laguna Tiscapa</text>
    <text x="370" y="275" font-family="Segoe UI, Arial" font-size="11" fill="#073642">Parque Vel치squez</text>

    <!-- small compass -->
    <g transform="translate(700,20)">
      <circle cx="0" cy="0" r="28" fill="#fff" stroke="#d0e6d8"/>
      <text x="0" y="5" font-size="12" font-family="Segoe UI, Arial" text-anchor="middle" fill="#073642">N</text>
    </g>
  </g>
</svg>